<svg width="30" height="30" viewBox="0 0 30 30" fill="none" xmlns="http://www.w3.org/2000/svg">
<g id="&#240;&#159;&#166;&#134; icon &#34;heart&#34;">
<path id="Vector" d="M7.5 0C5.4375 0 3.6 1.01173 2.2125 2.59531C0.8625 4.17889 0 6.33431 0 8.79765C0 11.217 0.8625 13.3724 2.2125 15L15 30L27.7875 15C29.1375 13.4164 30 11.261 30 8.79765C30 6.3783 29.1375 4.22287 27.7875 2.59531C26.4375 1.01173 24.6 0 22.5 0C20.4375 0 18.6 1.01173 17.2125 2.59531C15.8625 4.17889 15 6.33431 15 8.79765C15 6.3783 14.1375 4.22287 12.7875 2.59531C11.4375 1.01173 9.6 0 7.5 0Z" fill="#A8A6A6"/>
</g>
</svg>
