<?xml version="1.0" encoding="UTF-8" standalone="no"?>
<!DOCTYPE svg PUBLIC "-//W3C//DTD SVG 1.1//EN" "http://www.w3.org/Graphics/SVG/1.1/DTD/svg11.dtd">
<svg xmlns="http://www.w3.org/2000/svg" version="1.1" viewBox="120.00 100.00 250.00 250.00">
<g stroke-width="2.00" fill="none" stroke-linecap="butt">
<path stroke="#a1bdd0" vector-effect="non-scaling-stroke" d="
  M 343.53 156.75
  A 43.35 43.35 0.0 0 0 300.18 113.40
  A 43.35 43.35 0.0 0 0 256.83 156.75
  A 43.35 43.35 0.0 0 0 300.18 200.10
  A 43.35 43.35 0.0 0 0 343.53 156.75"
/>
<path stroke="#83a3c4" vector-effect="non-scaling-stroke" d="
  M 213.8440 168.5328
  A 32.67 32.28 -1.1 0 0 180.5603 136.8859
  A 32.67 32.28 -1.1 0 0 148.5160 169.7872
  A 32.67 32.28 -1.1 0 0 181.7997 201.4341
  A 32.67 32.28 -1.1 0 0 213.8440 168.5328"
/>
<path stroke="#a1bdd0" vector-effect="non-scaling-stroke" d="
  M 239.04 260.71
  Q 251.77 282.73 263.90 302.40
  Q 269.40 311.31 274.53 317.26
  Q 286.18 330.75 306.31 333.78
  Q 308.31 334.09 310.34 334.21
  Q 312.69 334.36 314.98 334.27
  Q 339.96 333.24 355.45 314.25
  C 361.92 306.33 366.32 295.66 367.22 285.39
  Q 369.38 260.90 352.88 242.93
  C 345.45 234.83 334.31 230.14 323.98 226.24
  Q 271.49 206.37 258.23 201.53"
/>
<path stroke="#83a3c4" vector-effect="non-scaling-stroke" d="
  M 258.23 201.53
  Q 251.90 198.09 246.75 196.40
  C 231.40 191.35 221.06 203.30 208.96 210.19
  Q 187.15 222.62 165.05 235.28
  Q 156.52 240.18 152.01 243.94
  C 132.66 260.09 128.46 286.54 144.91 306.58
  Q 158.93 323.65 182.61 321.67
  C 196.58 320.50 207.55 313.02 214.98 301.20
  Q 227.23 281.71 239.04 260.71"
/>
<path stroke="#246195" vector-effect="non-scaling-stroke" d="
  M 258.23 201.53
  Q 258.69 204.02 259.73 206.27
  Q 260.88 208.75 260.65 217.01
  Q 260.41 225.31 256.75 231.41
  Q 250.47 241.87 244.08 252.53
  Q 243.63 253.29 241.88 256.79
  Q 240.58 259.40 239.04 260.71"
/>
<path stroke="#83a3c4" vector-effect="non-scaling-stroke" d="
  M 172.75 369.97
  L 172.75 362.28
  Q 172.75 361.81 172.28 361.82
  L 169.20 361.85
  Q 168.76 361.86 168.76 362.30
  L 168.76 383.51
  A 0.50 0.49 0.0 0 0 169.26 384.00
  L 172.24 384.00
  A 0.49 0.49 0.0 0 0 172.73 383.51
  L 172.79 374.25
  A 2.90 2.89 81.4 0 1 174.79 371.52
  Q 175.77 371.21 176.58 371.27
  Q 178.99 371.45 178.99 373.87
  L 179.00 383.75
  Q 179.00 384.01 179.25 384.00
  L 182.55 384.00
  A 0.46 0.46 0.0 0 0 183.01 383.53
  Q 182.91 379.35 183.02 374.44
  C 183.11 370.23 181.23 367.27 176.53 368.05
  Q 174.49 368.39 173.23 370.12
  Q 172.75 370.77 172.75 369.97"
/>
<path stroke="#a1bdd0" vector-effect="non-scaling-stroke" d="
  M 237.28 370.45
  C 238.30 365.74 244.95 364.73 247.06 369.08
  Q 247.30 369.56 247.75 369.28
  L 250.22 367.78
  A 0.56 0.55 -29.3 0 0 250.43 367.05
  Q 248.38 363.16 243.81 362.84
  Q 234.37 362.18 232.82 371.15
  C 231.62 378.15 235.00 384.47 242.96 384.28
  Q 248.85 384.13 250.70 378.88
  Q 250.88 378.35 250.39 378.09
  L 247.99 376.83
  Q 247.47 376.56 247.30 377.12
  Q 246.19 380.75 242.34 380.67
  C 236.80 380.56 236.38 374.58 237.28 370.45"
/>
<path stroke="#83a3c4" vector-effect="non-scaling-stroke" d="
  M 153.79 384.00
  A 0.32 0.32 0.0 0 0 154.11 383.68
  L 154.08 375.28
  A 0.32 0.32 0.0 0 1 154.65 375.07
  L 161.80 383.88
  A 0.32 0.32 0.0 0 0 162.05 384.00
  L 166.21 384.00
  A 0.32 0.32 0.0 0 0 166.46 383.48
  L 158.25 373.13
  A 0.32 0.32 0.0 0 1 158.25 372.73
  L 165.71 363.54
  A 0.32 0.32 0.0 0 0 165.46 363.02
  L 161.71 363.04
  A 0.32 0.32 0.0 0 0 161.46 363.16
  L 154.68 371.48
  A 0.32 0.32 0.0 0 1 154.11 371.27
  L 154.10 363.35
  A 0.32 0.32 0.0 0 0 153.78 363.03
  L 150.31 363.06
  A 0.32 0.32 0.0 0 0 149.99 363.38
  L 149.99 383.67
  A 0.32 0.32 0.0 0 0 150.31 383.99
  L 153.79 384.00"
/>
<path stroke="#a1bdd0" vector-effect="non-scaling-stroke" d="
  M 343.36 371.90
  Q 343.32 375.20 343.35 378.92
  C 343.38 384.03 347.70 385.32 351.83 383.62
  Q 352.43 383.37 352.25 382.75
  L 351.66 380.73
  Q 351.51 380.20 350.99 380.40
  Q 349.89 380.83 348.71 380.68
  Q 347.39 380.51 347.38 379.19
  L 347.34 372.13
  Q 347.33 371.35 348.12 371.36
  L 351.22 371.39
  Q 351.83 371.39 351.83 370.78
  L 351.84 368.75
  Q 351.84 368.15 351.24 368.17
  L 348.01 368.23
  Q 347.28 368.24 347.30 367.51
  L 347.37 365.05
  Q 347.39 364.44 346.80 364.54
  L 343.82 365.04
  Q 343.27 365.13 343.30 365.68
  L 343.41 367.78
  Q 343.44 368.26 342.96 368.23
  L 341.56 368.16
  Q 341.00 368.13 340.99 368.69
  L 340.98 370.81
  Q 340.98 371.29 341.45 371.38
  Q 342.03 371.48 342.60 371.32
  Q 343.37 371.11 343.36 371.90"
/>
<path stroke="#83a3c4" vector-effect="non-scaling-stroke" d="
  M 195.87 382.19
  Q 197.17 384.75 200.64 383.93
  Q 201.19 383.80 201.28 383.24
  Q 201.68 380.87 199.76 380.68
  Q 199.23 380.62 199.22 380.09
  Q 199.21 376.99 199.26 373.62
  C 199.39 366.15 190.90 367.06 187.00 370.24
  Q 186.50 370.66 186.86 371.20
  L 188.04 372.97
  A 0.49 0.49 0.0 0 0 188.81 373.03
  C 189.88 371.83 193.89 369.88 195.13 371.96
  A 1.48 1.48 0.0 0 1 194.11 374.18
  C 190.28 374.84 185.13 375.57 186.42 381.04
  Q 186.86 382.93 188.49 383.66
  Q 192.71 385.56 195.35 382.14
  Q 195.65 381.74 195.87 382.19"
/>
<path stroke="#83a3c4" vector-effect="non-scaling-stroke" d="
  M 224.87 369.99
  L 224.89 368.76
  Q 224.89 368.14 224.27 368.16
  L 221.51 368.23
  A 0.52 0.52 0.0 0 0 221.01 368.75
  L 221.02 383.51
  Q 221.02 384.01 221.51 384.01
  L 224.70 383.99
  Q 225.02 383.99 225.02 383.67
  Q 224.94 379.77 225.04 375.91
  Q 225.18 370.81 229.96 371.93
  Q 230.36 372.03 230.42 371.62
  L 230.89 368.79
  Q 230.96 368.38 230.55 368.28
  Q 227.05 367.40 225.44 370.15
  Q 224.86 371.14 224.87 369.99"
/>
<path stroke="#a1bdd0" vector-effect="non-scaling-stroke" d="
  M 268.6157 375.0502
  A 6.99 6.99 0.0 0 0 261.6623 368.0237
  L 260.3024 368.0166
  A 6.99 6.99 0.0 0 0 253.2759 374.9699
  L 253.2643 377.1698
  A 6.99 6.99 0.0 0 0 260.2177 384.1963
  L 261.5776 384.2034
  A 6.99 6.99 0.0 0 0 268.6041 377.2501
  L 268.6157 375.0502"
/>
<path stroke="#a1bdd0" vector-effect="non-scaling-stroke" d="
  M 276.15 370.08
  Q 276.07 369.48 276.13 368.85
  Q 276.18 368.18 275.51 368.19
  L 272.76 368.22
  A 0.52 0.51 89.4 0 0 272.26 368.74
  L 272.25 383.75
  Q 272.25 383.99 272.50 383.99
  L 276.00 384.00
  Q 276.25 384.00 276.25 383.75
  L 276.27 374.95
  Q 276.27 371.82 279.35 371.29
  Q 279.78 371.22 280.22 371.28
  Q 282.49 371.60 282.49 373.89
  L 282.49 383.61
  Q 282.49 383.99 282.86 383.99
  L 286.04 384.00
  Q 286.46 384.00 286.47 383.59
  Q 286.60 377.86 286.40 372.83
  C 286.19 367.30 279.28 366.27 276.67 370.20
  Q 276.24 370.84 276.15 370.08"
/>
<path stroke="#a1bdd0" vector-effect="non-scaling-stroke" d="
  M 294.54 369.93
  L 294.65 368.75
  A 0.52 0.52 0.0 0 0 294.12 368.18
  L 291.26 368.23
  Q 290.76 368.24 290.76 368.74
  L 290.75 383.50
  A 0.50 0.50 0.0 0 0 291.25 384.00
  L 294.50 383.99
  Q 294.73 383.99 294.73 383.75
  L 294.79 374.26
  A 2.79 2.78 75.1 0 1 296.17 371.87
  Q 297.41 371.14 298.67 371.28
  Q 300.99 371.54 301.00 373.88
  L 301.00 383.63
  Q 301.00 384.00 301.38 384.00
  L 304.55 384.00
  Q 304.96 384.00 304.97 383.59
  Q 305.07 377.84 304.90 372.81
  C 304.73 367.89 299.56 366.64 296.11 369.06
  Q 295.64 369.39 295.41 369.92
  Q 295.32 370.13 295.13 370.27
  Q 294.46 370.74 294.54 369.93"
/>
<path stroke="#a1bdd0" vector-effect="non-scaling-stroke" d="
  M 313.18 377.00
  L 322.51 377.00
  A 0.40 0.39 -85.8 0 0 322.90 376.66
  C 324.79 363.45 305.12 365.76 308.82 379.04
  C 310.49 385.01 319.28 386.37 322.56 381.11
  Q 322.89 380.58 322.36 380.24
  L 320.68 379.15
  A 0.75 0.75 0.0 0 0 319.72 379.29
  Q 317.34 382.01 314.19 380.29
  Q 312.81 379.54 312.54 377.74
  Q 312.43 377.00 313.18 377.00"
/>
<path stroke="#a1bdd0" vector-effect="non-scaling-stroke" d="
  M 333.49 371.28
  Q 335.53 371.34 336.52 373.04
  Q 336.89 373.67 337.47 373.23
  L 339.31 371.84
  Q 339.81 371.47 339.51 370.92
  C 337.84 367.78 333.37 367.41 330.41 368.48
  C 323.73 370.89 324.01 382.44 331.49 384.07
  C 334.95 384.82 338.55 383.74 339.86 380.30
  Q 340.09 379.72 339.54 379.43
  L 337.51 378.35
  Q 336.98 378.07 336.75 378.61
  Q 335.53 381.42 332.49 380.80
  C 328.55 379.99 328.61 371.13 333.49 371.28"
/>
<path stroke="#83a3c4" vector-effect="non-scaling-stroke" d="
  M 210.68 378.75
  A 0.35 0.34 -45.6 0 1 210.03 378.76
  L 206.41 368.65
  Q 206.26 368.24 205.83 368.24
  L 202.54 368.20
  Q 202.12 368.19 202.27 368.59
  Q 205.09 376.04 208.09 383.75
  Q 208.58 385.02 207.71 386.02
  Q 206.01 387.98 203.04 386.88
  Q 202.66 386.74 202.60 387.14
  L 202.15 389.96
  Q 202.11 390.20 202.35 390.27
  Q 209.18 392.15 211.58 386.03
  Q 214.92 377.49 218.22 368.57
  Q 218.36 368.19 217.96 368.19
  L 214.53 368.25
  Q 214.30 368.25 214.23 368.47
  L 210.68 378.75"
/>
<path stroke="#83a3c4" vector-effect="non-scaling-stroke" d="
  M 194.97 376.38
  C 192.99 377.03 189.16 377.08 190.44 380.35
  Q 190.64 380.88 191.18 381.06
  C 194.42 382.12 195.66 379.39 195.50 376.75
  Q 195.47 376.21 194.97 376.38"
/>
<path stroke="#a1bdd0" vector-effect="non-scaling-stroke" d="
  M 264.48 374.64
  A 3.31 3.31 0.0 0 0 261.17 371.33
  L 260.65 371.33
  A 3.31 3.31 0.0 0 0 257.34 374.64
  L 257.34 377.58
  A 3.31 3.31 0.0 0 0 260.65 380.89
  L 261.17 380.89
  A 3.31 3.31 0.0 0 0 264.48 377.58
  L 264.48 374.64"
/>
<path stroke="#a1bdd0" vector-effect="non-scaling-stroke" d="
  M 312.92 374.47
  L 318.98 374.39
  A 0.20 0.20 0.0 0 0 319.18 374.18
  L 319.18 374.07
  A 3.14 3.11 -0.8 0 0 316.00 371.01
  L 315.82 371.01
  A 3.14 3.11 -0.8 0 0 312.72 374.16
  L 312.72 374.27
  A 0.20 0.20 0.0 0 0 312.92 374.47"
/>
</g>
<path fill="#ffffff" d="
  M 0.00 0.00
  L 500.00 0.00
  L 500.00 500.00
  L 0.00 500.00
  L 0.00 0.00
  Z
  M 343.53 156.75
  A 43.35 43.35 0.0 0 0 300.18 113.40
  A 43.35 43.35 0.0 0 0 256.83 156.75
  A 43.35 43.35 0.0 0 0 300.18 200.10
  A 43.35 43.35 0.0 0 0 343.53 156.75
  Z
  M 213.8440 168.5328
  A 32.67 32.28 -1.1 0 0 180.5603 136.8859
  A 32.67 32.28 -1.1 0 0 148.5160 169.7872
  A 32.67 32.28 -1.1 0 0 181.7997 201.4341
  A 32.67 32.28 -1.1 0 0 213.8440 168.5328
  Z
  M 239.04 260.71
  Q 251.77 282.73 263.90 302.40
  Q 269.40 311.31 274.53 317.26
  Q 286.18 330.75 306.31 333.78
  Q 308.31 334.09 310.34 334.21
  Q 312.69 334.36 314.98 334.27
  Q 339.96 333.24 355.45 314.25
  C 361.92 306.33 366.32 295.66 367.22 285.39
  Q 369.38 260.90 352.88 242.93
  C 345.45 234.83 334.31 230.14 323.98 226.24
  Q 271.49 206.37 258.23 201.53
  Q 251.90 198.09 246.75 196.40
  C 231.40 191.35 221.06 203.30 208.96 210.19
  Q 187.15 222.62 165.05 235.28
  Q 156.52 240.18 152.01 243.94
  C 132.66 260.09 128.46 286.54 144.91 306.58
  Q 158.93 323.65 182.61 321.67
  C 196.58 320.50 207.55 313.02 214.98 301.20
  Q 227.23 281.71 239.04 260.71
  Z
  M 172.75 369.97
  L 172.75 362.28
  Q 172.75 361.81 172.28 361.82
  L 169.20 361.85
  Q 168.76 361.86 168.76 362.30
  L 168.76 383.51
  A 0.50 0.49 0.0 0 0 169.26 384.00
  L 172.24 384.00
  A 0.49 0.49 0.0 0 0 172.73 383.51
  L 172.79 374.25
  A 2.90 2.89 81.4 0 1 174.79 371.52
  Q 175.77 371.21 176.58 371.27
  Q 178.99 371.45 178.99 373.87
  L 179.00 383.75
  Q 179.00 384.01 179.25 384.00
  L 182.55 384.00
  A 0.46 0.46 0.0 0 0 183.01 383.53
  Q 182.91 379.35 183.02 374.44
  C 183.11 370.23 181.23 367.27 176.53 368.05
  Q 174.49 368.39 173.23 370.12
  Q 172.75 370.77 172.75 369.97
  Z
  M 237.28 370.45
  C 238.30 365.74 244.95 364.73 247.06 369.08
  Q 247.30 369.56 247.75 369.28
  L 250.22 367.78
  A 0.56 0.55 -29.3 0 0 250.43 367.05
  Q 248.38 363.16 243.81 362.84
  Q 234.37 362.18 232.82 371.15
  C 231.62 378.15 235.00 384.47 242.96 384.28
  Q 248.85 384.13 250.70 378.88
  Q 250.88 378.35 250.39 378.09
  L 247.99 376.83
  Q 247.47 376.56 247.30 377.12
  Q 246.19 380.75 242.34 380.67
  C 236.80 380.56 236.38 374.58 237.28 370.45
  Z
  M 153.79 384.00
  A 0.32 0.32 0.0 0 0 154.11 383.68
  L 154.08 375.28
  A 0.32 0.32 0.0 0 1 154.65 375.07
  L 161.80 383.88
  A 0.32 0.32 0.0 0 0 162.05 384.00
  L 166.21 384.00
  A 0.32 0.32 0.0 0 0 166.46 383.48
  L 158.25 373.13
  A 0.32 0.32 0.0 0 1 158.25 372.73
  L 165.71 363.54
  A 0.32 0.32 0.0 0 0 165.46 363.02
  L 161.71 363.04
  A 0.32 0.32 0.0 0 0 161.46 363.16
  L 154.68 371.48
  A 0.32 0.32 0.0 0 1 154.11 371.27
  L 154.10 363.35
  A 0.32 0.32 0.0 0 0 153.78 363.03
  L 150.31 363.06
  A 0.32 0.32 0.0 0 0 149.99 363.38
  L 149.99 383.67
  A 0.32 0.32 0.0 0 0 150.31 383.99
  L 153.79 384.00
  Z
  M 343.36 371.90
  Q 343.32 375.20 343.35 378.92
  C 343.38 384.03 347.70 385.32 351.83 383.62
  Q 352.43 383.37 352.25 382.75
  L 351.66 380.73
  Q 351.51 380.20 350.99 380.40
  Q 349.89 380.83 348.71 380.68
  Q 347.39 380.51 347.38 379.19
  L 347.34 372.13
  Q 347.33 371.35 348.12 371.36
  L 351.22 371.39
  Q 351.83 371.39 351.83 370.78
  L 351.84 368.75
  Q 351.84 368.15 351.24 368.17
  L 348.01 368.23
  Q 347.28 368.24 347.30 367.51
  L 347.37 365.05
  Q 347.39 364.44 346.80 364.54
  L 343.82 365.04
  Q 343.27 365.13 343.30 365.68
  L 343.41 367.78
  Q 343.44 368.26 342.96 368.23
  L 341.56 368.16
  Q 341.00 368.13 340.99 368.69
  L 340.98 370.81
  Q 340.98 371.29 341.45 371.38
  Q 342.03 371.48 342.60 371.32
  Q 343.37 371.11 343.36 371.90
  Z
  M 195.87 382.19
  Q 197.17 384.75 200.64 383.93
  Q 201.19 383.80 201.28 383.24
  Q 201.68 380.87 199.76 380.68
  Q 199.23 380.62 199.22 380.09
  Q 199.21 376.99 199.26 373.62
  C 199.39 366.15 190.90 367.06 187.00 370.24
  Q 186.50 370.66 186.86 371.20
  L 188.04 372.97
  A 0.49 0.49 0.0 0 0 188.81 373.03
  C 189.88 371.83 193.89 369.88 195.13 371.96
  A 1.48 1.48 0.0 0 1 194.11 374.18
  C 190.28 374.84 185.13 375.57 186.42 381.04
  Q 186.86 382.93 188.49 383.66
  Q 192.71 385.56 195.35 382.14
  Q 195.65 381.74 195.87 382.19
  Z
  M 224.87 369.99
  L 224.89 368.76
  Q 224.89 368.14 224.27 368.16
  L 221.51 368.23
  A 0.52 0.52 0.0 0 0 221.01 368.75
  L 221.02 383.51
  Q 221.02 384.01 221.51 384.01
  L 224.70 383.99
  Q 225.02 383.99 225.02 383.67
  Q 224.94 379.77 225.04 375.91
  Q 225.18 370.81 229.96 371.93
  Q 230.36 372.03 230.42 371.62
  L 230.89 368.79
  Q 230.96 368.38 230.55 368.28
  Q 227.05 367.40 225.44 370.15
  Q 224.86 371.14 224.87 369.99
  Z
  M 268.6157 375.0502
  A 6.99 6.99 0.0 0 0 261.6623 368.0237
  L 260.3024 368.0166
  A 6.99 6.99 0.0 0 0 253.2759 374.9699
  L 253.2643 377.1698
  A 6.99 6.99 0.0 0 0 260.2177 384.1963
  L 261.5776 384.2034
  A 6.99 6.99 0.0 0 0 268.6041 377.2501
  L 268.6157 375.0502
  Z
  M 276.15 370.08
  Q 276.07 369.48 276.13 368.85
  Q 276.18 368.18 275.51 368.19
  L 272.76 368.22
  A 0.52 0.51 89.4 0 0 272.26 368.74
  L 272.25 383.75
  Q 272.25 383.99 272.50 383.99
  L 276.00 384.00
  Q 276.25 384.00 276.25 383.75
  L 276.27 374.95
  Q 276.27 371.82 279.35 371.29
  Q 279.78 371.22 280.22 371.28
  Q 282.49 371.60 282.49 373.89
  L 282.49 383.61
  Q 282.49 383.99 282.86 383.99
  L 286.04 384.00
  Q 286.46 384.00 286.47 383.59
  Q 286.60 377.86 286.40 372.83
  C 286.19 367.30 279.28 366.27 276.67 370.20
  Q 276.24 370.84 276.15 370.08
  Z
  M 294.54 369.93
  L 294.65 368.75
  A 0.52 0.52 0.0 0 0 294.12 368.18
  L 291.26 368.23
  Q 290.76 368.24 290.76 368.74
  L 290.75 383.50
  A 0.50 0.50 0.0 0 0 291.25 384.00
  L 294.50 383.99
  Q 294.73 383.99 294.73 383.75
  L 294.79 374.26
  A 2.79 2.78 75.1 0 1 296.17 371.87
  Q 297.41 371.14 298.67 371.28
  Q 300.99 371.54 301.00 373.88
  L 301.00 383.63
  Q 301.00 384.00 301.38 384.00
  L 304.55 384.00
  Q 304.96 384.00 304.97 383.59
  Q 305.07 377.84 304.90 372.81
  C 304.73 367.89 299.56 366.64 296.11 369.06
  Q 295.64 369.39 295.41 369.92
  Q 295.32 370.13 295.13 370.27
  Q 294.46 370.74 294.54 369.93
  Z
  M 313.18 377.00
  L 322.51 377.00
  A 0.40 0.39 -85.8 0 0 322.90 376.66
  C 324.79 363.45 305.12 365.76 308.82 379.04
  C 310.49 385.01 319.28 386.37 322.56 381.11
  Q 322.89 380.58 322.36 380.24
  L 320.68 379.15
  A 0.75 0.75 0.0 0 0 319.72 379.29
  Q 317.34 382.01 314.19 380.29
  Q 312.81 379.54 312.54 377.74
  Q 312.43 377.00 313.18 377.00
  Z
  M 333.49 371.28
  Q 335.53 371.34 336.52 373.04
  Q 336.89 373.67 337.47 373.23
  L 339.31 371.84
  Q 339.81 371.47 339.51 370.92
  C 337.84 367.78 333.37 367.41 330.41 368.48
  C 323.73 370.89 324.01 382.44 331.49 384.07
  C 334.95 384.82 338.55 383.74 339.86 380.30
  Q 340.09 379.72 339.54 379.43
  L 337.51 378.35
  Q 336.98 378.07 336.75 378.61
  Q 335.53 381.42 332.49 380.80
  C 328.55 379.99 328.61 371.13 333.49 371.28
  Z
  M 210.68 378.75
  A 0.35 0.34 -45.6 0 1 210.03 378.76
  L 206.41 368.65
  Q 206.26 368.24 205.83 368.24
  L 202.54 368.20
  Q 202.12 368.19 202.27 368.59
  Q 205.09 376.04 208.09 383.75
  Q 208.58 385.02 207.71 386.02
  Q 206.01 387.98 203.04 386.88
  Q 202.66 386.74 202.60 387.14
  L 202.15 389.96
  Q 202.11 390.20 202.35 390.27
  Q 209.18 392.15 211.58 386.03
  Q 214.92 377.49 218.22 368.57
  Q 218.36 368.19 217.96 368.19
  L 214.53 368.25
  Q 214.30 368.25 214.23 368.47
  L 210.68 378.75
  Z"
/>
<circle fill="#427aa1" cx="300.18" cy="156.75" r="43.35"/>
<ellipse fill="#064789" cx="0.00" cy="0.00" transform="translate(181.18,169.16) rotate(-1.1)" rx="32.67" ry="32.28"/>
<path fill="#064789" d="
  M 258.23 201.53
  Q 258.69 204.02 259.73 206.27
  Q 260.88 208.75 260.65 217.01
  Q 260.41 225.31 256.75 231.41
  Q 250.47 241.87 244.08 252.53
  Q 243.63 253.29 241.88 256.79
  Q 240.58 259.40 239.04 260.71
  Q 227.23 281.71 214.98 301.20
  C 207.55 313.02 196.58 320.50 182.61 321.67
  Q 158.93 323.65 144.91 306.58
  C 128.46 286.54 132.66 260.09 152.01 243.94
  Q 156.52 240.18 165.05 235.28
  Q 187.15 222.62 208.96 210.19
  C 221.06 203.30 231.40 191.35 246.75 196.40
  Q 251.90 198.09 258.23 201.53
  Z"
/>
<path fill="#427aa1" d="
  M 258.23 201.53
  Q 271.49 206.37 323.98 226.24
  C 334.31 230.14 345.45 234.83 352.88 242.93
  Q 369.38 260.90 367.22 285.39
  C 366.32 295.66 361.92 306.33 355.45 314.25
  Q 339.96 333.24 314.98 334.27
  Q 312.69 334.36 310.34 334.21
  Q 308.31 334.09 306.31 333.78
  Q 286.18 330.75 274.53 317.26
  Q 269.40 311.31 263.90 302.40
  Q 251.77 282.73 239.04 260.71
  Q 240.58 259.40 241.88 256.79
  Q 243.63 253.29 244.08 252.53
  Q 250.47 241.87 256.75 231.41
  Q 260.41 225.31 260.65 217.01
  Q 260.88 208.75 259.73 206.27
  Q 258.69 204.02 258.23 201.53
  Z"
/>
<path fill="#FFFFFF" d="
  M 173.23 370.12
  Q 174.49 368.39 176.53 368.05
  C 181.23 367.27 183.11 370.23 183.02 374.44
  Q 182.91 379.35 183.01 383.53
  A 0.46 0.46 0.0 0 1 182.55 384.00
  L 179.25 384.00
  Q 179.00 384.01 179.00 383.75
  L 178.99 373.87
  Q 178.99 371.45 176.58 371.27
  Q 175.77 371.21 174.79 371.52
  A 2.90 2.89 81.4 0 0 172.79 374.25
  L 172.73 383.51
  A 0.49 0.49 0.0 0 1 172.24 384.00
  L 169.26 384.00
  A 0.50 0.49 0.0 0 1 168.76 383.51
  L 168.76 362.30
  Q 168.76 361.86 169.20 361.85
  L 172.28 361.82
  Q 172.75 361.81 172.75 362.28
  L 172.75 369.97
  Q 172.75 370.77 173.23 370.12
  Z"
/>
<path fill="#FFFFFF" d="
  M 247.06 369.08
  C 244.95 364.73 238.30 365.74 237.28 370.45
  C 236.38 374.58 236.80 380.56 242.34 380.67
  Q 246.19 380.75 247.30 377.12
  Q 247.47 376.56 247.99 376.83
  L 250.39 378.09
  Q 250.88 378.35 250.70 378.88
  Q 248.85 384.13 242.96 384.28
  C 235.00 384.47 231.62 378.15 232.82 371.15
  Q 234.37 362.18 243.81 362.84
  Q 248.38 363.16 250.43 367.05
  A 0.56 0.55 -29.3 0 1 250.22 367.78
  L 247.75 369.28
  Q 247.30 369.56 247.06 369.08
  Z"
/>
<path fill="#FFFFFF" d="
  M 153.79 384.00
  L 150.31 383.99
  A 0.32 0.32 0.0 0 1 149.99 383.67
  L 149.99 363.38
  A 0.32 0.32 0.0 0 1 150.31 363.06
  L 153.78 363.03
  A 0.32 0.32 0.0 0 1 154.10 363.35
  L 154.11 371.27
  A 0.32 0.32 0.0 0 0 154.68 371.48
  L 161.46 363.16
  A 0.32 0.32 0.0 0 1 161.71 363.04
  L 165.46 363.02
  A 0.32 0.32 0.0 0 1 165.71 363.54
  L 158.25 372.73
  A 0.32 0.32 0.0 0 0 158.25 373.13
  L 166.46 383.48
  A 0.32 0.32 0.0 0 1 166.21 384.00
  L 162.05 384.00
  A 0.32 0.32 0.0 0 1 161.80 383.88
  L 154.65 375.07
  A 0.32 0.32 0.0 0 0 154.08 375.28
  L 154.11 383.68
  A 0.32 0.32 0.0 0 1 153.79 384.00
  Z"
/>
<path fill="#FFFFFF" d="
  M 342.60 371.32
  Q 342.03 371.48 341.45 371.38
  Q 340.98 371.29 340.98 370.81
  L 340.99 368.69
  Q 341.00 368.13 341.56 368.16
  L 342.96 368.23
  Q 343.44 368.26 343.41 367.78
  L 343.30 365.68
  Q 343.27 365.13 343.82 365.04
  L 346.80 364.54
  Q 347.39 364.44 347.37 365.05
  L 347.30 367.51
  Q 347.28 368.24 348.01 368.23
  L 351.24 368.17
  Q 351.84 368.15 351.84 368.75
  L 351.83 370.78
  Q 351.83 371.39 351.22 371.39
  L 348.12 371.36
  Q 347.33 371.35 347.34 372.13
  L 347.38 379.19
  Q 347.39 380.51 348.71 380.68
  Q 349.89 380.83 350.99 380.40
  Q 351.51 380.20 351.66 380.73
  L 352.25 382.75
  Q 352.43 383.37 351.83 383.62
  C 347.70 385.32 343.38 384.03 343.35 378.92
  Q 343.32 375.20 343.36 371.90
  Q 343.37 371.11 342.60 371.32
  Z"
/>
<path fill="#FFFFFF" d="
  M 195.35 382.14
  Q 192.71 385.56 188.49 383.66
  Q 186.86 382.93 186.42 381.04
  C 185.13 375.57 190.28 374.84 194.11 374.18
  A 1.48 1.48 0.0 0 0 195.13 371.96
  C 193.89 369.88 189.88 371.83 188.81 373.03
  A 0.49 0.49 0.0 0 1 188.04 372.97
  L 186.86 371.20
  Q 186.50 370.66 187.00 370.24
  C 190.90 367.06 199.39 366.15 199.26 373.62
  Q 199.21 376.99 199.22 380.09
  Q 199.23 380.62 199.76 380.68
  Q 201.68 380.87 201.28 383.24
  Q 201.19 383.80 200.64 383.93
  Q 197.17 384.75 195.87 382.19
  Q 195.65 381.74 195.35 382.14
  Z
  M 194.97 376.38
  C 192.99 377.03 189.16 377.08 190.44 380.35
  Q 190.64 380.88 191.18 381.06
  C 194.42 382.12 195.66 379.39 195.50 376.75
  Q 195.47 376.21 194.97 376.38
  Z"
/>
<path fill="#FFFFFF" d="
  M 224.87 369.99
  Q 224.86 371.14 225.44 370.15
  Q 227.05 367.40 230.55 368.28
  Q 230.96 368.38 230.89 368.79
  L 230.42 371.62
  Q 230.36 372.03 229.96 371.93
  Q 225.18 370.81 225.04 375.91
  Q 224.94 379.77 225.02 383.67
  Q 225.02 383.99 224.70 383.99
  L 221.51 384.01
  Q 221.02 384.01 221.02 383.51
  L 221.01 368.75
  A 0.52 0.52 0.0 0 1 221.51 368.23
  L 224.27 368.16
  Q 224.89 368.14 224.89 368.76
  L 224.87 369.99
  Z"
/>
<path fill="#FFFFFF" d="
  M 268.6041 377.2501
  A 6.99 6.99 0.0 0 1 261.5776 384.2034
  L 260.2177 384.1963
  A 6.99 6.99 0.0 0 1 253.2643 377.1698
  L 253.2759 374.9699
  A 6.99 6.99 0.0 0 1 260.3024 368.0166
  L 261.6623 368.0237
  A 6.99 6.99 0.0 0 1 268.6157 375.0502
  L 268.6041 377.2501
  Z
  M 264.48 374.64
  A 3.31 3.31 0.0 0 0 261.17 371.33
  L 260.65 371.33
  A 3.31 3.31 0.0 0 0 257.34 374.64
  L 257.34 377.58
  A 3.31 3.31 0.0 0 0 260.65 380.89
  L 261.17 380.89
  A 3.31 3.31 0.0 0 0 264.48 377.58
  L 264.48 374.64
  Z"
/>
<path fill="#FFFFFF" d="
  M 276.67 370.20
  C 279.28 366.27 286.19 367.30 286.40 372.83
  Q 286.60 377.86 286.47 383.59
  Q 286.46 384.00 286.04 384.00
  L 282.86 383.99
  Q 282.49 383.99 282.49 383.61
  L 282.49 373.89
  Q 282.49 371.60 280.22 371.28
  Q 279.78 371.22 279.35 371.29
  Q 276.27 371.82 276.27 374.95
  L 276.25 383.75
  Q 276.25 384.00 276.00 384.00
  L 272.50 383.99
  Q 272.25 383.99 272.25 383.75
  L 272.26 368.74
  A 0.52 0.51 89.4 0 1 272.76 368.22
  L 275.51 368.19
  Q 276.18 368.18 276.13 368.85
  Q 276.07 369.48 276.15 370.08
  Q 276.24 370.84 276.67 370.20
  Z"
/>
<path fill="#FFFFFF" d="
  M 295.13 370.27
  Q 295.32 370.13 295.41 369.92
  Q 295.64 369.39 296.11 369.06
  C 299.56 366.64 304.73 367.89 304.90 372.81
  Q 305.07 377.84 304.97 383.59
  Q 304.96 384.00 304.55 384.00
  L 301.38 384.00
  Q 301.00 384.00 301.00 383.63
  L 301.00 373.88
  Q 300.99 371.54 298.67 371.28
  Q 297.41 371.14 296.17 371.87
  A 2.79 2.78 75.1 0 0 294.79 374.26
  L 294.73 383.75
  Q 294.73 383.99 294.50 383.99
  L 291.25 384.00
  A 0.50 0.50 0.0 0 1 290.75 383.50
  L 290.76 368.74
  Q 290.76 368.24 291.26 368.23
  L 294.12 368.18
  A 0.52 0.52 0.0 0 1 294.65 368.75
  L 294.54 369.93
  Q 294.46 370.74 295.13 370.27
  Z"
/>
<path fill="#FFFFFF" d="
  M 312.54 377.74
  Q 312.81 379.54 314.19 380.29
  Q 317.34 382.01 319.72 379.29
  A 0.75 0.75 0.0 0 1 320.68 379.15
  L 322.36 380.24
  Q 322.89 380.58 322.56 381.11
  C 319.28 386.37 310.49 385.01 308.82 379.04
  C 305.12 365.76 324.79 363.45 322.90 376.66
  A 0.40 0.39 -85.8 0 1 322.51 377.00
  L 313.18 377.00
  Q 312.43 377.00 312.54 377.74
  Z
  M 312.92 374.47
  L 318.98 374.39
  A 0.20 0.20 0.0 0 0 319.18 374.18
  L 319.18 374.07
  A 3.14 3.11 -0.8 0 0 316.00 371.01
  L 315.82 371.01
  A 3.14 3.11 -0.8 0 0 312.72 374.16
  L 312.72 374.27
  A 0.20 0.20 0.0 0 0 312.92 374.47
  Z"
/>
<path fill="#FFFFFF" d="
  M 333.49 371.28
  C 328.61 371.13 328.55 379.99 332.49 380.80
  Q 335.53 381.42 336.75 378.61
  Q 336.98 378.07 337.51 378.35
  L 339.54 379.43
  Q 340.09 379.72 339.86 380.30
  C 338.55 383.74 334.95 384.82 331.49 384.07
  C 324.01 382.44 323.73 370.89 330.41 368.48
  C 333.37 367.41 337.84 367.78 339.51 370.92
  Q 339.81 371.47 339.31 371.84
  L 337.47 373.23
  Q 336.89 373.67 336.52 373.04
  Q 335.53 371.34 333.49 371.28
  Z"
/>
<path fill="#FFFFFF" d="
  M 210.68 378.75
  L 214.23 368.47
  Q 214.30 368.25 214.53 368.25
  L 217.96 368.19
  Q 218.36 368.19 218.22 368.57
  Q 214.92 377.49 211.58 386.03
  Q 209.18 392.15 202.35 390.27
  Q 202.11 390.20 202.15 389.96
  L 202.60 387.14
  Q 202.66 386.74 203.04 386.88
  Q 206.01 387.98 207.71 386.02
  Q 208.58 385.02 208.09 383.75
  Q 205.09 376.04 202.27 368.59
  Q 202.12 368.19 202.54 368.20
  L 205.83 368.24
  Q 206.26 368.24 206.41 368.65
  L 210.03 378.76
  A 0.35 0.34 -45.6 0 0 210.68 378.75
  Z"
/>
<path fill="#ffffff" d="
  M 312.92 374.47
  A 0.20 0.20 0.0 0 1 312.72 374.27
  L 312.72 374.16
  A 3.14 3.11 -0.8 0 1 315.82 371.01
  L 316.00 371.01
  A 3.14 3.11 -0.8 0 1 319.18 374.07
  L 319.18 374.18
  A 0.20 0.20 0.0 0 1 318.98 374.39
  L 312.92 374.47
  Z"
/>
<rect fill="#ffffff" x="257.34" y="371.33" width="7.14" height="9.56" rx="3.31"/>
<path fill="#ffffff" d="
  M 190.44 380.35
  C 189.16 377.08 192.99 377.03 194.97 376.38
  Q 195.47 376.21 195.50 376.75
  C 195.66 379.39 194.42 382.12 191.18 381.06
  Q 190.64 380.88 190.44 380.35
  Z"
/>
</svg>
