<svg width="41" height="41" viewBox="0 0 41 41" fill="none" xmlns="http://www.w3.org/2000/svg">
<g id="&#240;&#159;&#166;&#134; icon &#34;cog&#34;">
<path id="Vector" d="M17.9439 0L15.3878 6.08354C14.8766 6.23691 14.4165 6.49252 13.9564 6.74813L7.87282 4.19202L4.19202 7.87282L6.74813 13.9564C6.49252 14.4676 6.28803 14.8766 6.08354 15.3878L0 17.9439V23.0561L6.08354 25.6122C6.28803 26.1234 6.49252 26.5324 6.74813 27.0436L4.19202 33.1272L7.87282 36.808L13.9564 34.2519C14.4165 34.4564 14.8766 34.712 15.3878 34.9165L17.9439 41H23.0561L25.6122 34.9165C26.0723 34.712 26.5835 34.5075 27.0436 34.2519L33.1272 36.808L36.808 33.1272L34.2519 27.0436C34.4564 26.5835 34.712 26.0723 34.9165 25.6122L41 23.0561V17.9439L34.9165 15.3878C34.7631 14.9277 34.5075 14.4165 34.2519 13.9564L36.808 7.87282L33.1272 4.19202L27.0436 6.74813C26.5835 6.54364 26.0723 6.28803 25.6122 6.08354L23.0561 0L17.9439 0ZM20.5 12.7805C24.7431 12.7805 28.1683 16.2057 28.1683 20.4489C28.1683 24.692 24.7431 28.1172 20.5 28.1172C16.2569 28.1172 12.8317 24.692 12.8317 20.4489C12.8317 16.2057 16.2569 12.7805 20.5 12.7805Z" fill="#BBBBBB"/>
</g>
</svg>
